<?xml version="1.0" encoding="utf-8"?>
<!-- Generator: Adobe Illustrator 15.0.0, SVG Export Plug-In . SVG Version: 6.00 Build 0)  -->
<!DOCTYPE svg PUBLIC "-//W3C//DTD SVG 1.1//EN" "http://www.w3.org/Graphics/SVG/1.1/DTD/svg11.dtd">
<svg version="1.1" id="Layer_1" xmlns="http://www.w3.org/2000/svg" xmlns:xlink="http://www.w3.org/1999/xlink" x="0px" y="0px"
	 width="625px" height="226.77px" viewBox="0 0 625 226.77" enable-background="new 0 0 625 226.77" xml:space="preserve">
<g>
	<rect x="19.994" y="18.711" fill="#0065BD" width="191.184" height="191.185"/>
	<g>
		<path fill="#FFFFFF" d="M174.95,101.619l4.898-3.576c-1.852-1.984-3.838-4.367-3.838-8.207c0-2.911,1.986-6.089,4.5-7.411
			c-1.322-1.589-3.442-3.042-6.484-3.042c-3.972,0-7.282,2.912-7.282,6.748c0,2.646,1.721,4.898,3.708,5.956
			C170.451,95.793,172.172,99.101,174.95,101.619 M148.745,75.544l4.103-7.281h-6.088c0,1.323-1.193,2.779-2.651,2.779
			c-1.584,0-2.644-1.058-2.644-2.779h-5.429c0,1.587-1.188,2.779-2.645,2.779c-1.456,0-2.648-1.191-2.648-2.779h-6.089l3.575,7.014
			c2.782-0.263,5.426-0.395,8.074-0.395C141.197,74.882,145.435,75.145,148.745,75.544 M137.625,140.133
			c-0.661-1.19-1.322-2.648-1.322-5.291c0-3.445,1.986-6.356,6.222-8.21c2.779-1.323,4.895-2.516,8.603-4.365
			c8.734-4.5,11.779-12.973,11.779-21.707c0-4.369-1.192-7.812-2.646-10.724c0.394,2.383,0.792,4.37,0.792,6.75
			c0,9.133-3.175,15.885-11.513,19.985c-5.293,2.647-7.943,3.707-11.12,5.296c-4.497,2.381-7.015,5.427-7.015,9.133
			C131.404,135.631,133.785,139.075,137.625,140.133 M132.463,138.413c-1.454-1.457-3.042-4.104-3.042-7.545
			c0-4.368,2.91-8.073,8.071-10.722c4.501-2.117,7.146-3.178,11.117-5.029c8.341-4.102,10.854-11.118,10.854-18.66
			c0-7.282-2.381-10.988-4.367-13.37c1.454,2.781,1.854,6.088,1.854,8.87c0,8.073-2.381,15.087-11.781,18.793
			c-4.766,1.984-7.809,2.645-11.912,4.498c-6.486,3.047-9,6.62-9,11.913C124.258,132.192,127.435,136.956,132.463,138.413
			 M127.435,137.354c-2.252-1.854-5.164-4.898-5.164-10.325c0-5.69,2.382-9.925,9.795-13.103c4.768-1.986,7.28-2.912,11.782-4.633
			c9.529-3.573,11.515-10.589,11.515-17.472c0-6.616-2.383-10.457-5.295-12.97c1.72,2.117,2.781,5.693,2.781,9.396
			c0,8.736-3.309,13.634-12.707,16.944c-3.839,1.189-7.941,2.38-12.178,3.969c-7.675,2.911-11.647,7.146-11.647,14.294
			C116.316,130.868,122.008,136.429,127.435,137.354 M122.14,136.429c-5.294-2.649-7.809-8.34-7.809-13.371
			c0-7.278,4.5-12.441,12.042-15.222c4.637-1.718,8.341-2.777,12.974-4.365c9.001-3.178,11.913-7.412,11.913-15.486
			c0-4.633-1.72-8.602-4.5-10.853c0.924,1.058,1.19,2.38,1.19,3.573c0,2.25-1.19,3.308-2.911,3.308c-1.06,0-2.12-0.662-2.25-1.719
			c0.529,0.393,0.927,0.528,1.458,0.528c1.454,0,2.248-1.06,2.248-2.516c0-2.25-2.117-3.441-4.234-3.706
			c-1.854-0.266-3.84-0.266-6.089-0.266s-4.368,0.133-7.146,0.266c1.719,2.382,7.413,1.721,9.131,2.911
			c-1.458-0.13-2.912-0.13-4.37,0.264c0,0.929-0.394,1.986-1.321,1.986c-1.721,0-2.516-1.852-3.706-5.161l-6.75,0.531
			c-1.061,0.131-1.456,0.528-1.326,1.323l0.664,6.618c0,0.263,0.266,0.396,0.531,0.396c0.263,0,0.526-0.132,0.659-0.53
			c0.265-0.529,1.061-1.72,3.044-1.72c2.912,0,5.162,2.649,5.293,5.691c-1.058-1.454-3.438-2.779-7.411-2.779
			c-3.043,0-5.557,0.926-9.528,0.926c-4.236,0-6.618-1.588-6.618-3.573c0-0.926,0.13-1.457,0.661-2.119
			c-1.72,0.795-3.044,2.252-3.044,4.634c0,2.911,2.12,5.958,8.338,5.958c5.69,0,8.341-3.577,13.501-3.577
			c2.383,0,3.575,1.191,3.575,2.517c0,1.19-1.062,2.25-2.911,2.25c-2.252,0-3.838-1.19-4.634-2.383
			c-0.133-0.266-0.265-0.396-0.53-0.396c-0.394,0-0.529,0.264-0.529,0.529l0.135,6.352c0,0.794,0.394,1.193,1.323,1.06
			c3.969-0.398,8.071-0.927,11.913-1.191c7.146-0.661,12.044-5.428,12.044-10.721c0-0.795,0-1.458-0.133-2.25
			c0.66,1.059,0.925,2.118,0.925,3.44c0,4.898-2.646,8.604-11.115,10.855c-4.502,1.19-7.811,1.719-11.651,2.646
			c-10.191,2.383-16.808,10.191-16.808,18.929C108.375,128.089,114.066,135.37,122.14,136.429 M77.799,88.646
			c0.53-1.19,0.664-2.25,0.664-3.045c0-1.72-0.797-3.307-1.589-3.969c1.984,0,3.704,1.454,3.704,3.44
			C80.578,86.925,79.388,88.118,77.799,88.646 M102.153,120.146l4.235-2.251c1.457-8.864,6.749-15.087,16.015-17.335
			c-4.896,0.262-9.133,0.395-15.087,0.661c-6.352,0.263-16.809,1.06-24.089,1.588c-1.458,0.133-2.382-0.398-2.78-1.588
			c-0.397-1.323-1.191-3.839-1.324-5.295c-0.133-1.192,0.133-1.986,1.193-2.779c2.115-1.457,4.235-3.178,4.235-6.75
			c0-3.839-3.311-6.353-6.355-6.353c-1.058,0-1.851,0.131-2.513,0.395c-0.796-0.527-1.588-0.926-3.177-0.926
			c-2.252,0-4.235,1.456-4.767,2.647c-3.836-0.264-6.881,2.515-6.618,6.22c0.529-0.529,1.589-1.058,2.782-1.058
			c1.454,0,2.778,1.058,2.778,2.647c0,1.457-0.264,3.311-0.264,5.293c0,6.091,4.898,9.268,4.898,12.443
			c0,1.588-1.193,2.911-2.781,2.911c0.927,3.31,3.972,5.03,8.073,5.03c2.648,0,5.031-0.264,8.868-0.264
			C96.463,115.383,101.225,116.572,102.153,120.146 M142.918,157.604h1.327c-0.137-4.236-1.192-7.147-2.911-10.189
			c-0.93-1.72-2.12-3.573-3.046-4.769c-0.53-0.792-1.193-1.056-1.986-1.056c-0.531,0-0.926,0.396-0.531,1.056
			c1.062,1.721,2.517,4.372,4.37,8.472c-1.588,0.267-1.986,1.061-1.986,2.383C138.155,155.618,140.141,157.604,142.918,157.604
			 M72.639,89.175c0.13-3.707-1.456-5.691-3.706-6.618c0.396-0.132,0.924-0.398,1.719-0.398c1.721,0,3.575,1.458,3.575,3.708
			C74.227,87.057,73.83,88.38,72.639,89.175 M157.479,182.354c-0.528-1.19-2.25-2.38-4.367-2.38c-1.193,0-1.985,0.263-2.517,0.527
			c0.132-1.058,1.191-2.25,3.31-2.25C156.42,178.252,157.742,180.237,157.479,182.354 M156.685,188.048
			c-0.794-0.926-2.115-1.724-3.837-1.724c-2.12,0-3.177,0.928-3.708,1.591c-0.263-1.591,1.06-3.574,3.576-3.574
			C155.362,184.341,156.685,186.194,156.685,188.048 M62.58,124.911c0.925-2.251,3.042-3.838,5.558-4.368
			c0.527-0.794,1.191-1.454,1.854-1.985l-4.5-18.795c-0.531-1.321-0.93-2.645-0.93-4.5c0-1.983,0.399-3.969,0.399-5.027
			c0-0.927-0.529-1.191-1.058-1.191c-0.398,0-0.663,0-0.794,0.131v0.531c0,3.042-1.856,5.425-4.898,5.425
			c-3.043,0-5.427-2.514-5.427-5.425c0-2.913,2.384-5.297,5.427-5.297c0.529,0,1.192,0,1.984,0.265
			c0.927-2.38,3.838-4.5,6.882-4.102c-2.116-2.649-5.292-4.237-8.866-4.237c-7.677,0-13.764,5.56-13.764,13.371
			c0,7.277,5.956,13.102,13.368,13.235L62.58,124.911z M83.095,153.367c1.985,0,4.102-1.059,6.086-3.043
			c3.573-3.44,8.604-8.603,11.65-10.59c2.646-1.718,4.367-2.38,6.086-2.38c1.059,0,1.856,0.263,2.649,1.059l4.499-3.443
			c-5.161-3.838-7.544-8.867-7.677-15.087c-7.146,3.838-12.308,9.135-18.267,14.16c-1.057,0.799-1.587,1.191-2.513,1.191
			c-0.928,0-1.722-0.925-3.31-2.515c-1.324-1.323-1.589-2.117-1.589-3.043c0-1.588,0.53-2.118,0.53-4.234
			c0-4.235-3.307-6.619-6.485-6.619c-2.648,0-4.633,1.456-5.294,3.31c-3.575,0.263-5.826,2.912-5.826,5.689
			c0,0.663,0.135,1.195,0.268,1.589c-1.324,0.795-2.65,2.382-2.65,4.503c0,2.249,1.192,4.367,3.179,5.028
			c-0.268-0.399-0.399-0.926-0.399-1.588c0-1.191,1.061-2.251,2.517-2.251c1.189,0,1.984,0.397,2.912,1.456
			c1.19,1.588,2.382,3.043,4.368,4.765c1.854,1.589,3.97,2.648,5.955,3.84c1.191,0.793,2.116,1.854,2.116,3.439
			c0,1.062-0.792,2.252-2.38,2.647C80.182,152.708,81.506,153.367,83.095,153.367 M75.55,127.559
			c-0.132-2.647-2.117-4.764-4.632-5.292c0.397-0.269,1.057-0.664,2.117-0.664c1.853,0,3.311,1.59,3.311,3.309
			C76.346,126.236,75.947,126.897,75.55,127.559 M90.241,197.179c-0.53-0.662-0.792-1.323-0.792-2.118
			c0-1.588,1.321-2.779,3.175-2.779c2.911,0,4.5,3.178,8.341,3.178c4.367,0,6.482-3.178,10.454-3.178
			c1.987,0,4.767,1.191,4.767,3.707c0,0.398-0.136,0.795-0.398,1.06c4.501,0,7.675-3.839,7.675-10.193
			c0-8.866-0.262-12.44-0.396-17.338c3.444-0.132,6.749-1.854,6.218-7.277c-0.925,0.791-1.982,1.188-3.173,1.188
			c-1.588,0-2.781-1.188-2.781-2.911c0-0.795,0-1.72,0.132-2.648l15.487-0.397c-1.457-0.794-2.513-2.381-2.513-4.234
			c0-1.322,0.528-2.25,1.588-2.78c-1.458-3.042-2.647-5.425-4.103-7.676c-0.796-1.19-1.721-2.383-3.575-2.383
			c-4.104-0.132-12.441,1.059-16.679,2.516c-3.175,1.06-6.221,3.439-6.221,8.867c0,5.03,1.722,13.897,1.589,27.794
			c0,1.987-0.529,2.65-1.719,2.912c-1.06,0.267-3.838,0.53-5.561,0.267c-0.924-0.137-1.721-0.794-2.25-2.778
			c-0.662-2.781-2.646-5.561-6.618-5.561c-3.575,0-6.749,2.648-6.22,6.618c-1.722,1.059-2.516,2.779-2.516,4.366
			c0,1.59,0.529,2.911,1.191,3.707c-0.397,0.926-0.527,1.456-0.527,2.382C84.816,194.799,87.728,197.179,90.241,197.179
			 M71.577,131.132c-0.792-1.589-2.513-2.514-4.5-2.514c-0.793,0-1.455,0.133-1.983,0.265c0.264-1.061,1.456-1.985,3.177-1.985
			C70.521,126.897,71.975,128.618,71.577,131.132 M94.743,182.354c-0.531-1.19-2.251-2.38-4.368-2.38
			c-1.193,0-1.987,0.263-2.515,0.527c0.13-1.058,1.192-2.25,3.309-2.25C93.683,178.252,95.006,180.237,94.743,182.354
			 M83.489,193.871c-0.394-0.795-0.527-1.59-0.527-2.384s0.133-1.456,0.397-2.116c-0.663-1.193-1.06-2.517-1.06-3.973
			c0-1.985,0.928-3.837,2.252-5.03l-8.206-35.602c-1.327-0.662-2.649-1.458-3.707-2.385c-1.854-1.588-2.913-2.779-4.633-4.765
			c-0.531-0.526-0.929-0.793-1.456-0.793c-0.797,0-1.324,0.53-1.058,1.589l1.718,8.204l3.575,2.517l9.925,42.617L83.489,193.871z
			 M93.95,188.048c-0.796-0.926-2.119-1.724-3.842-1.724c-2.119,0-3.176,0.928-3.707,1.591c-0.262-1.591,1.062-3.574,3.575-3.574
			C92.623,184.341,93.95,186.194,93.95,188.048 M28.562,197.973l8.074-6.222l9.927-42.617l3.574-2.517l7.943-34.145l-1.72-7.942
			c-1.987-0.398-3.709-0.927-5.162-1.722L28.562,197.973z M152.979,197.179c-0.529-0.662-0.794-1.323-0.794-2.118
			c0-1.588,1.323-2.779,3.178-2.779c2.911,0,4.5,3.178,8.338,3.178c4.365,0,6.485-3.178,10.455-3.178
			c1.987,0,4.766,1.191,4.766,3.707c0,0.398-0.133,0.795-0.396,1.06c4.5,0,7.675-3.839,7.675-10.193
			c0-8.468-0.792-17.867-1.721-27.266c2.382-0.528,4.633-2.912,4.633-5.955c0-1.058-0.395-2.25-1.058-3.31
			c-0.664,0.927-1.855,1.72-3.837,2.252c-2.781,0.791-6.222,1.189-8.74,1.189c-5.69,0-7.542-0.398-10.189-1.189
			c-0.134-3.574-2.382-6.487-4.5-8.472c3.308,1.321,4.765,1.984,10.059,1.984c16.94,0,27.397-11.382,27.397-24.353
			c0-9.4-5.956-13.765-11.383-16.942l-5.028,3.574c6.089,2.779,10.058,6.88,10.058,12.442c0,6.088-4.895,10.458-10.585,10.458
			c-6.091,0-10.855-4.37-10.855-10.328c0-4.497,2.116-7.808,6.088-10.984c3.97-3.175,10.06-7.013,13.37-10.587
			c1.721-1.856,3.174-4.767,3.043-7.018c2.25-1.057,3.971-3.306,3.971-6.219c0-3.836-3.704-6.748-7.677-6.748
			c-2.384,0-5.028,1.453-6.355,3.042c2.385,0.926,4.635,4.102,4.635,7.411c0,2.781-1.72,5.163-3.706,7.147
			c-3.044,3.046-7.015,5.296-11.384,8.869c-5.295,4.367-8.471,9.53-8.471,15.354c0,8.072,6.221,15.617,16.013,15.617
			c3.177,0,5.693-0.661,7.547-1.854c-3.178,3.706-9.132,5.561-15.353,5.561c-5.43,0-9.133-0.796-13.104-3.706
			c-3.574-2.646-6.353-8.867-6.221-13.5c-2.911,1.721-6.354,3.308-9.266,4.633c-4.104,1.985-5.427,4.103-5.427,7.674
			c0,4.767,3.31,8.474,4.763,11.253c1.987,3.572,2.648,6.75,2.913,10.057c0.796,8.077,5.428,11.782,13.633,11.782
			c3.707,0,8.602-0.266,10.588-0.532c0.795,3.712,1.722,8.076,1.722,11.384c0,1.987-0.531,2.65-1.722,2.912
			c-1.058,0.267-3.838,0.53-5.557,0.267c-0.925-0.137-1.723-0.794-2.253-2.778c-0.66-2.781-2.647-5.561-6.616-5.561
			c-3.576,0-6.75,2.648-6.222,6.618c-1.722,1.059-2.516,2.779-2.516,4.366c0,1.59,0.53,2.911,1.192,3.707
			c-0.398,0.926-0.53,1.456-0.53,2.382C147.551,194.799,150.465,197.179,152.979,197.179"/>
		<path fill="#0065BD" d="M539.089,209.898h18.863v-6.237h-10.98v-4.424h10.62v-6.073h-10.62v-4.386h10.98v-6.234h-18.863V209.898z
			 M519.459,210.538c6.437,0,11.787-3.096,11.787-10.737v-17.257h-7.884v16.531c0,3.097-1.69,4.463-3.903,4.463
			c-2.211,0-3.899-1.366-3.899-4.463v-16.531h-7.885v17.257C507.675,207.442,513.026,210.538,519.459,210.538 M491.146,210.538
			c4.868,0,8.244-1.486,9.896-2.334v-12.105h-7.681v7.4c-0.568,0.12-1.169,0.201-1.773,0.201c-3.057,0-6.437-2.332-6.437-7.482
			c0-5.548,2.979-8.283,8.084-8.283c2.818,0,5.23,0.966,6.722,1.769v-6.436c-1.611-0.724-4.268-1.729-7.885-1.729
			c-9.295,0-15.527,5.75-15.527,14.679C476.544,205.149,483.499,210.538,491.146,210.538 M456.673,198.633l2.694-10.095h0.363
			l2.697,10.095H456.673z M465.439,209.898h8.089l-8.205-27.354h-11.547l-8.163,27.354h8.083l1.491-5.672h8.728L465.439,209.898z
			 M428.357,195.176v-6.799h3.178c2.132,0,3.378,1.649,3.378,3.378c0,1.73-1.246,3.421-3.378,3.421H428.357z M420.474,209.898h7.884
			v-9.617h2.01l4.747,9.617h8.89l-5.026-8.449c-0.521-0.886-1.168-1.689-1.529-1.932l0.039-0.16c2.413-1.086,5.833-3.14,5.833-7.803
			c0-4.909-3.901-9.011-10.295-9.011h-12.552V209.898z M400.243,195.176v-6.759h3.097c1.729,0,3.296,1.447,3.296,3.378
			c0,1.973-1.567,3.381-3.296,3.381H400.243z M392.357,209.898h7.886v-8.853h4.023c6.394,0,10.375-4.061,10.375-9.09
			c0-5.027-3.981-9.412-10.375-9.412h-11.909V209.898z M348.316,209.898h7.885v-16.413h0.119l8.286,16.413h9.612v-27.354h-7.882
			v16.331h-0.12l-8.205-16.331h-9.695V209.898z M332.39,209.898h7.881v-27.354h-7.881V209.898z M302.664,210.538
			c6.435,0,11.785-3.096,11.785-10.737v-17.257h-7.884v16.531c0,3.097-1.688,4.463-3.901,4.463c-2.211,0-3.9-1.366-3.9-4.463
			v-16.531h-7.884v17.257C290.88,207.442,296.228,210.538,302.664,210.538 M271.254,209.898h7.882v-20.96h6.798v-6.395h-21.519
			v6.395h6.839V209.898z M253.312,210.337c3.256,0,5.992-0.845,7.642-1.688v-6.878c-1.569,0.844-3.378,1.568-6.234,1.568
			c-2.857,0-6.998-2.173-6.998-7.122c0-4.945,3.781-7.279,7.443-7.279c2.492,0,4.221,0.562,5.748,1.328v-6.798
			c-1.608-0.722-3.617-1.286-6.837-1.286c-8.083,0-14.961,5.311-14.961,14.035C239.114,204.946,245.271,210.337,253.312,210.337"/>
		<path fill="#0065BD" d="M514.352,169.581c7.481,0,11.622-4.706,11.622-9.252c0-4.465-2.29-7.078-6.756-8.163
			c-1.808-0.442-2.814-0.604-4.185-0.886c-1.849-0.404-2.654-0.925-2.654-1.972c0-1.205,1.371-1.972,4.426-1.972
			c3.339,0,6.114,1.046,7.482,1.813v-6.801c-1.772-0.765-4.668-1.407-7.884-1.407c-6.799,0-11.827,3.578-11.827,9.133
			c0,4.22,2.373,6.876,6.074,7.802c2.053,0.522,3.138,0.764,4.905,1.205c1.491,0.361,2.494,0.845,2.494,1.933
			c0,1.367-1.448,2.131-4.102,2.131c-3.622,0-7.28-1.57-9.052-2.816v7.16C507.11,168.736,510.248,169.581,514.352,169.581
			 M492.271,169.381c3.26,0,5.99-0.848,7.643-1.692v-6.874c-1.568,0.843-3.38,1.567-6.233,1.567c-2.856,0-7.003-2.173-7.003-7.121
			c0-4.945,3.782-7.28,7.445-7.28c2.491,0,4.223,0.563,5.746,1.328v-6.798c-1.607-0.724-3.616-1.288-6.831-1.288
			c-8.089,0-14.968,5.312-14.968,14.038C478.069,163.99,484.229,169.381,492.271,169.381 M463.75,168.938h7.885v-27.354h-7.885
			V168.938z M443.923,168.938h7.885V147.98h6.796v-6.396h-21.518v6.396h6.837V168.938z M413.517,168.938h18.859v-6.235h-10.977
			v-4.425h10.618v-6.073h-10.618v-4.382h10.977v-6.238h-18.859V168.938z M379.567,168.938h7.882v-16.413h0.125l8.286,16.413h9.608
			v-27.354h-7.881v16.331h-0.12l-8.205-16.331h-9.695V168.938z M358.211,154.216v-6.797h3.179c2.13,0,3.38,1.649,3.38,3.378
			s-1.25,3.419-3.38,3.419H358.211z M350.325,168.938h7.886v-9.614h2.008l4.747,9.614h8.893l-5.025-8.448
			c-0.527-0.885-1.169-1.688-1.531-1.93l0.038-0.161c2.417-1.087,5.833-3.139,5.833-7.804c0-4.906-3.898-9.011-10.296-9.011h-12.552
			V168.938z M324.264,168.938h18.866v-6.235h-10.982v-4.425h10.62v-6.073h-10.62v-4.382h10.982v-6.238h-18.866V168.938z
			 M302.462,163.065v-5.713h4.467c1.686,0,2.773,1.408,2.773,2.816c0,1.572-1.088,2.896-2.773,2.896H302.462z M302.462,152.767
			v-5.309h3.62c1.607,0,2.655,1.248,2.655,2.654c0,1.407-1.048,2.654-2.655,2.654H302.462z M294.577,168.938h13.397
			c7.039,0,9.855-3.944,9.855-7.403c0-4.623-3.139-6.154-5.191-6.676V154.7c1.85-0.726,3.944-2.455,3.944-5.794
			c0-3.78-3.021-7.321-9.292-7.321h-12.714V168.938z M273.502,168.938h7.884v-10.016l9.454-17.338h-8.729l-4.464,9.775h-0.159
			l-4.307-9.775h-8.93l9.251,17.338V168.938z M253.312,169.381c3.256,0,5.992-0.848,7.642-1.692v-6.874
			c-1.569,0.843-3.378,1.567-6.234,1.567c-2.857,0-6.998-2.173-6.998-7.121c0-4.945,3.781-7.28,7.443-7.28
			c2.492,0,4.221,0.563,5.748,1.328v-6.798c-1.608-0.724-3.617-1.288-6.837-1.288c-8.083,0-14.961,5.312-14.961,14.038
			C239.114,163.99,245.271,169.381,253.312,169.381"/>
		<path fill="#0065BD" d="M536.594,121.183v-13.757h1.65c3.78,0,6.677,2.453,6.677,6.879c0,4.423-2.896,6.878-6.677,6.878H536.594z
			 M528.708,127.979h10.826c7.841,0,14.033-5.431,14.033-13.675c0-8.247-6.192-13.677-14.033-13.677h-10.826V127.979z
			 M494.764,127.979h7.886v-16.411h0.119l8.289,16.411h9.611v-27.352h-7.885v16.331h-0.119l-8.206-16.331h-9.695V127.979z
			 M473.688,116.717l2.696-10.097h0.359l2.697,10.097H473.688z M482.457,127.979h8.084l-8.203-27.352H470.79l-8.162,27.352h8.084
			l1.488-5.673h8.727L482.457,127.979z M437.568,128.622c7.485,0,11.625-4.704,11.625-9.252c0-4.462-2.292-7.078-6.756-8.164
			c-1.812-0.441-2.816-0.604-4.186-0.887c-1.848-0.398-2.653-0.923-2.653-1.968c0-1.208,1.368-1.972,4.425-1.972
			c3.338,0,6.113,1.046,7.482,1.81v-6.797c-1.772-0.765-4.667-1.41-7.885-1.41c-6.797,0-11.825,3.582-11.825,9.132
			c0,4.227,2.373,6.878,6.072,7.804c2.053,0.523,3.137,0.765,4.907,1.207c1.491,0.359,2.492,0.846,2.492,1.93
			c0,1.367-1.446,2.134-4.101,2.134c-3.62,0-7.278-1.569-9.05-2.818v7.16C430.33,127.778,433.467,128.622,437.568,128.622
			 M415.486,128.421c3.259,0,5.992-0.844,7.644-1.687v-6.88c-1.568,0.845-3.38,1.567-6.234,1.567c-2.855,0-6.997-2.171-6.997-7.117
			c0-4.949,3.778-7.281,7.438-7.281c2.493,0,4.225,0.562,5.754,1.327v-6.798c-1.612-0.725-3.621-1.286-6.84-1.286
			c-8.084,0-14.962,5.308-14.962,14.038C401.289,123.03,407.444,128.421,415.486,128.421 M386.975,127.979h7.882v-27.352h-7.882
			V127.979z M367.143,127.979h7.884v-20.956h6.794v-6.396h-21.516v6.396h6.838V127.979z M343.936,121.623
			c-3.506,0-5.272-2.814-5.272-7.318c0-4.507,1.767-7.322,5.272-7.322c3.539,0,5.186,2.814,5.186,7.322
			C349.121,118.809,347.475,121.623,343.936,121.623 M343.936,128.622c8.162,0,13.63-5.188,13.63-14.317s-5.468-14.322-13.63-14.322
			c-8.124,0-13.719,5.192-13.719,14.322S335.812,128.622,343.936,128.622 M310.026,122.105v-5.712h4.462
			c1.695,0,2.779,1.409,2.779,2.816c0,1.57-1.084,2.896-2.779,2.896H310.026z M310.026,111.809v-5.307h3.619
			c1.608,0,2.652,1.246,2.652,2.652c0,1.409-1.044,2.655-2.652,2.655H310.026z M302.142,127.979h13.396
			c7.036,0,9.854-3.94,9.854-7.401c0-4.625-3.138-6.154-5.189-6.678v-0.16c1.85-0.722,3.941-2.455,3.941-5.791
			c0-3.78-3.015-7.322-9.293-7.322h-12.709V127.979z M282.072,121.623c-3.5,0-5.269-2.814-5.269-7.318
			c0-4.507,1.769-7.322,5.269-7.322c3.538,0,5.188,2.814,5.188,7.322C287.26,118.809,285.61,121.623,282.072,121.623
			 M282.072,128.622c8.166,0,13.634-5.188,13.634-14.317s-5.468-14.322-13.634-14.322c-8.126,0-13.718,5.192-13.718,14.322
			S273.946,128.622,282.072,128.622 M248.609,113.258v-6.797h3.174c2.132,0,3.382,1.649,3.382,3.379c0,1.729-1.25,3.418-3.382,3.418
			H248.609z M240.723,127.979h7.886v-9.612h2.009l4.746,9.612h8.888l-5.023-8.449c-0.526-0.884-1.168-1.687-1.531-1.928l0.041-0.161
			c2.412-1.088,5.83-3.137,5.83-7.804c0-4.908-3.898-9.01-10.294-9.01h-12.551V127.979z"/>
		<path fill="#0065BD" d="M583.935,87.665c7.482,0,11.629-4.707,11.629-9.25c0-4.464-2.295-7.081-6.761-8.165
			c-1.809-0.445-2.816-0.603-4.184-0.885c-1.852-0.403-2.655-0.926-2.655-1.972c0-1.206,1.371-1.969,4.427-1.969
			c3.337,0,6.112,1.044,7.482,1.809v-6.798c-1.772-0.765-4.668-1.408-7.887-1.408c-6.797,0-11.823,3.581-11.823,9.131
			c0,4.223,2.372,6.877,6.073,7.803c2.053,0.524,3.136,0.765,4.906,1.207c1.489,0.361,2.491,0.844,2.491,1.93
			c0,1.367-1.445,2.134-4.101,2.134c-3.617,0-7.278-1.569-9.051-2.816v7.16C576.693,86.819,579.831,87.665,583.935,87.665
			 M561.854,87.464c3.26,0,5.991-0.845,7.644-1.691v-6.876c-1.569,0.845-3.381,1.567-6.233,1.567c-2.857,0-6.998-2.172-6.998-7.118
			c0-4.947,3.777-7.279,7.438-7.279c2.494,0,4.224,0.56,5.751,1.324v-6.797c-1.61-0.724-3.619-1.289-6.836-1.289
			c-8.087,0-14.964,5.31-14.964,14.04C547.656,82.074,553.811,87.464,561.854,87.464 M533.335,87.021h7.885V59.669h-7.885V87.021z
			 M513.506,87.021h7.886V66.067h6.796v-6.398h-21.52v6.398h6.838V87.021z M489.693,75.759l2.697-10.096h0.364l2.693,10.096H489.693
			z M498.465,87.021h8.088l-8.208-27.352h-11.547l-8.165,27.352h8.086l1.489-5.671h8.726L498.465,87.021z M444.568,87.021h7.522
			V70.328h0.118l7.079,11.625h0.565l6.754-11.664h0.121v16.732h7.685V59.669h-9.135l-5.629,9.695h-0.12l-5.629-9.695h-9.332V87.021z
			 M423.208,72.298v-6.795h3.177c2.134,0,3.382,1.648,3.382,3.378c0,1.729-1.248,3.417-3.382,3.417H423.208z M415.326,87.021h7.882
			v-9.611h2.012l4.746,9.611h8.889l-5.024-8.446c-0.525-0.887-1.168-1.69-1.53-1.931l0.04-0.16c2.414-1.087,5.83-3.138,5.83-7.805
			c0-4.908-3.899-9.011-10.295-9.011h-12.549V87.021z M395.256,80.666c-3.5,0-5.27-2.816-5.27-7.32c0-4.507,1.77-7.321,5.27-7.321
			c3.539,0,5.185,2.814,5.185,7.321C400.44,77.85,398.795,80.666,395.256,80.666 M395.256,87.665
			c8.164,0,13.636-5.187,13.636-14.318c0-9.132-5.472-14.32-13.636-14.32c-8.127,0-13.716,5.188-13.716,14.32
			C381.54,82.478,387.129,87.665,395.256,87.665 M358.01,59.669v27.352h7.884V76.441h10.699v-6.073h-10.699v-4.464h10.816v-6.236
			H358.01z M324.063,87.021h7.884V70.609h0.121l8.282,16.411h9.616V59.669h-7.883V76h-0.123l-8.208-16.331h-9.689V87.021z
			 M308.137,87.021h7.881V59.669h-7.881V87.021z M272.899,59.669v27.352h7.885V76.441h10.699v-6.073h-10.699v-4.464h10.82v-6.236
			H272.899z M252.83,80.666c-3.5,0-5.268-2.816-5.268-7.32c0-4.507,1.768-7.321,5.268-7.321c3.541,0,5.188,2.814,5.188,7.321
			C258.018,77.85,256.37,80.666,252.83,80.666 M252.83,87.665c8.167,0,13.635-5.187,13.635-14.318c0-9.132-5.468-14.32-13.635-14.32
			c-8.126,0-13.715,5.188-13.715,14.32C239.114,82.478,244.704,87.665,252.83,87.665"/>
		<path fill="#0065BD" d="M580.637,46.064H599.5v-6.236h-10.979v-4.424h10.621V29.33h-10.621v-4.383H599.5v-6.235h-18.863V46.064z
			 M560.809,46.064h7.881V25.107h6.8v-6.396h-21.519v6.396h6.838V46.064z M537.237,46.707c6.437,0,11.784-3.097,11.784-10.739
			V18.712h-7.881v16.53c0,3.097-1.689,4.465-3.903,4.465c-2.211,0-3.902-1.368-3.902-4.465v-16.53h-7.879v17.256
			C525.456,43.61,530.802,46.707,537.237,46.707 M505.82,46.064h7.885V25.107h6.8v-6.396h-21.517v6.396h6.832V46.064z
			 M485.954,46.064h7.885V18.712h-7.885V46.064z M466.127,46.064h7.881V25.107h6.798v-6.396h-21.518v6.396h6.839V46.064z
			 M445.008,46.707c7.482,0,11.627-4.707,11.627-9.251c0-4.466-2.293-7.079-6.759-8.165c-1.809-0.444-2.813-0.603-4.186-0.886
			c-1.849-0.404-2.653-0.925-2.653-1.973c0-1.204,1.368-1.968,4.426-1.968c3.338,0,6.112,1.046,7.483,1.81v-6.798
			c-1.772-0.764-4.669-1.407-7.884-1.407c-6.801,0-11.827,3.579-11.827,9.131c0,4.222,2.372,6.878,6.074,7.803
			c2.052,0.523,3.138,0.765,4.908,1.206c1.485,0.363,2.49,0.845,2.49,1.931c0,1.367-1.447,2.131-4.103,2.131
			c-3.62,0-7.278-1.569-9.049-2.815v7.159C437.769,45.863,440.906,46.707,445.008,46.707 M402.571,46.064h7.886V29.653h0.122
			l8.287,16.411h9.612V18.712h-7.884v16.331h-0.121l-8.206-16.331h-9.696V46.064z M386.646,46.064h7.884V18.712h-7.884V46.064z
			 M344.653,18.712v27.352h7.886v-10.7h8.087v10.7h7.882V18.712h-7.882v10.457h-8.087V18.712H344.653z M331.062,46.507
			c3.258,0,5.993-0.848,7.643-1.69v-6.877c-1.567,0.845-3.379,1.567-6.234,1.567c-2.857,0-6.997-2.172-6.997-7.119
			c0-4.946,3.78-7.279,7.438-7.279c2.494,0,4.227,0.562,5.753,1.325v-6.795c-1.608-0.724-3.62-1.288-6.835-1.288
			c-8.087,0-14.963,5.31-14.963,14.038C316.865,41.116,323.014,46.507,331.062,46.507 M292.409,46.064h18.864v-6.236h-10.984v-4.424
			h10.623V29.33h-10.623v-4.383h10.984v-6.235h-18.864V46.064z M264.895,46.064h21.48v-6.398h-11.827l11.628-15.202v-5.752h-21.039
			v6.396h11.183L264.895,40.03V46.064z M253.312,46.507c3.256,0,5.992-0.848,7.642-1.69v-6.877
			c-1.569,0.845-3.378,1.567-6.234,1.567c-2.857,0-6.998-2.172-6.998-7.119c0-4.946,3.781-7.279,7.443-7.279
			c2.492,0,4.221,0.562,5.748,1.325v-6.795c-1.608-0.724-3.617-1.288-6.837-1.288c-8.083,0-14.961,5.31-14.961,14.038
			C239.114,41.116,245.271,46.507,253.312,46.507"/>
	</g>
</g>
</svg>
